<svg xmlns="http://www.w3.org/2000/svg" viewBox="0 0 346.36 113.65"><defs><style>.cls-1{fill:#fcea00;}.cls-2{fill:#fff;}</style></defs><g id="Layer_2" data-name="Layer 2"><g id="Layer_2-2" data-name="Layer 2"><circle class="cls-1" cx="108.04" cy="18.08" r="15"/></g><g id="Layer_1-2" data-name="Layer 1"><path class="cls-2" d="M45.33,80,62.24,42.21H90.65L53.44,111.62H37.21L0,42.21H28.41Z"/><path class="cls-2" d="M96.06,111.62h24V42.21h-24Z"/><path class="cls-2" d="M141,16.37h24V42.21h14.61V60.48H164.93V82.53c0,6.5,1.62,9.61,5.41,9.61A11.3,11.3,0,0,0,176.29,90l6,19.35a39.67,39.67,0,0,1-17.59,4.33c-19.08,0-23.68-14.2-23.68-26.52V60.48H131V42.21h10Z"/><path class="cls-2" d="M219.59,40.18c9.33,0,17,3.12,22.73,8.66V42.21h23.95v69.41H242.59v-7.85h-.27a30.72,30.72,0,0,1-22.73,9.88c-20.3,0-34.5-16.37-34.5-36.66S199.29,40.18,219.59,40.18Zm7.17,53c9.33,0,16.1-6.76,16.1-16.23s-7.17-16.38-16.1-16.38A15.9,15.9,0,0,0,210.52,77C210.52,86.46,217,93.22,226.76,93.22Z"/><path class="cls-2" d="M307.94,89.3h38.42v22.32H282.5V0h25.44Z"/></g></g></svg>